<svg width="81" height="77" viewBox="0 0 81 77" fill="none" xmlns="http://www.w3.org/2000/svg">
<circle cx="38.2093" cy="38.2093" r="37.7093" transform="matrix(-1 0 0 1 76.4189 0)" fill="white" stroke="black"/>
<g clip-path="url(#clip0_28568_69)">
<circle cx="38.2083" cy="38.2093" r="38.2093" fill="black"/>
<g filter="url(#filter0_d_28568_69)">
<path d="M39.8938 34.366C39.9184 34.7284 39.5295 42.5538 39.8938 44.539C41.8542 46.9271 43.2513 46.1889 44.3704 46.7996C45.4896 47.4103 44.8048 48.9583 43.2513 49.0603C41.6977 49.1622 39.8938 47.9299 39.8938 47.9299V66.9568C39.9124 66.9473 39.9309 66.9381 39.9492 66.9289C40.3195 69.665 43.8184 68.6624 44.3626 68.2762C45.05 67.7884 45.2992 67.3274 45.4896 66.0153C47.3197 65.1676 53.393 63.3153 52.0484 61.0874C48.297 60.802 46.3639 59.9072 51.3843 57.2426C55.566 55.0456 57.0323 49.8641 51.3853 43.9738C51.3853 36.7734 46.0124 37.4679 44.8957 36.3377C43.7789 35.2075 44.4446 35.8369 43.2537 34.3664C42.0628 32.8959 39.8692 34.0036 39.8938 34.366Z" fill="white"/>
</g>
<path d="M56 13.8956C56 17.1517 52.2083 22.4258 49.5 23.9182C46.7917 21.9284 43 17.1517 43 13.8956C43 10.6396 45.9101 8 49.5 8C53.0899 8 56 10.6396 56 13.8956ZM49.5 14.4852C49.5 17.1025 46.6144 15.3695 49.5 15.3695C52.3856 15.3695 48.2 16.5129 48.2 13.8956C48.2 11.2783 52.3856 13.3061 49.5 13.3061C46.6144 13.3061 49.5 11.8679 49.5 14.4852Z" fill="white"/>
<path d="M44.083 17.5503H54.9163L51.6663 23.9176H47.333L44.083 17.5503Z" fill="white"/>
<path d="M47.5 25.5H51.5" stroke="white"/>
<path d="M47.5 27H51.5" stroke="white" stroke-width="0.5"/>
<path d="M48 28H51" stroke="white" stroke-width="0.3"/>
</g>
<g filter="url(#filter1_d_28568_69)">
<path d="M36.9986 34.3703C36.9719 34.7346 37.3937 42.6005 36.9986 44.5959C34.8721 46.9965 33.3566 46.2545 32.1426 46.8683C30.9286 47.4821 31.6714 49.0382 33.3566 49.1407C35.0418 49.2431 36.9986 48.0045 36.9986 48.0045L37.0253 59.6163C34.6458 58.5028 31.572 58.5028 33.3566 61.2865C35.1412 62.4 36.0344 62.9882 36.4304 64.0702C38.215 69.6376 32.8968 68.9464 32.1511 68.456C31.4055 67.9657 31.1352 67.5023 30.9286 66.1834C28.502 65.0473 24.3568 63.3088 24.8653 57.9464C20.2584 53.9116 18.4079 49.9486 24.5335 44.0279C24.5335 36.7902 30.3615 37.4883 31.5729 36.3523C32.7843 35.2162 32.0622 35.8488 33.354 34.3707C34.6458 32.8926 37.0253 34.0061 36.9986 34.3703Z" fill="black"/>
</g>
<path d="M33.0576 28.0564C32.7458 27.2311 32.4524 26.4241 32.1772 25.6355C31.9021 24.8285 31.6179 24.0123 31.3244 23.187H22.6861L20.9529 28.0564H18.1743C18.9079 26.0389 19.5957 24.1774 20.2376 22.4717C20.8795 20.7477 21.5031 19.1154 22.1083 17.5748C22.7319 16.0342 23.3463 14.567 23.9516 13.1731C24.5568 11.7609 25.1895 10.367 25.8498 8.9915H28.2982C28.9585 10.367 29.5912 11.7609 30.1965 13.1731C30.8017 14.567 31.4069 16.0342 32.0122 17.5748C32.6358 19.1154 33.2685 20.7477 33.9104 22.4717C34.5523 24.1774 35.2401 26.0389 35.9737 28.0564H33.0576ZM30.5541 20.9862C29.9672 19.3905 29.3803 17.8499 28.7934 16.3644C28.2249 14.8604 27.6288 13.4207 27.0052 12.0452C26.3633 13.4207 25.7489 14.8604 25.162 16.3644C24.5935 17.8499 24.0249 19.3905 23.4564 20.9862H30.5541Z" fill="black"/>
<defs>
<filter id="filter0_d_28568_69" x="37.0127" y="33.6245" width="20.8027" height="40.6016" filterUnits="userSpaceOnUse" color-interpolation-filters="sRGB">
<feFlood flood-opacity="0" result="BackgroundImageFix"/>
<feColorMatrix in="SourceAlpha" type="matrix" values="0 0 0 0 0 0 0 0 0 0 0 0 0 0 0 0 0 0 127 0" result="hardAlpha"/>
<feOffset dy="2.72461"/>
<feGaussianBlur stdDeviation="1.36231"/>
<feComposite in2="hardAlpha" operator="out"/>
<feColorMatrix type="matrix" values="0 0 0 0 0 0 0 0 0 0 0 0 0 0 0 0 0 0 0.25 0"/>
<feBlend mode="normal" in2="BackgroundImageFix" result="effect1_dropShadow_28568_69"/>
<feBlend mode="normal" in="SourceGraphic" in2="effect1_dropShadow_28568_69" result="shape"/>
</filter>
<filter id="filter1_d_28568_69" x="17.9092" y="33.625" width="21.9834" height="40.6016" filterUnits="userSpaceOnUse" color-interpolation-filters="sRGB">
<feFlood flood-opacity="0" result="BackgroundImageFix"/>
<feColorMatrix in="SourceAlpha" type="matrix" values="0 0 0 0 0 0 0 0 0 0 0 0 0 0 0 0 0 0 127 0" result="hardAlpha"/>
<feOffset dy="2.72461"/>
<feGaussianBlur stdDeviation="1.36231"/>
<feComposite in2="hardAlpha" operator="out"/>
<feColorMatrix type="matrix" values="0 0 0 0 0 0 0 0 0 0 0 0 0 0 0 0 0 0 0.25 0"/>
<feBlend mode="normal" in2="BackgroundImageFix" result="effect1_dropShadow_28568_69"/>
<feBlend mode="normal" in="SourceGraphic" in2="effect1_dropShadow_28568_69" result="shape"/>
</filter>
<clipPath id="clip0_28568_69">
<rect width="42.7944" height="76.4186" fill="white" transform="translate(38.2061)"/>
</clipPath>
</defs>
</svg>
